<?xml version="1.0" standalone="no"?>
<!DOCTYPE svg PUBLIC "-//W3C//DTD SVG 1.1//EN" "http://www.w3.org/Graphics/SVG/1.1/DTD/svg11.dtd">
<svg t="1581845009348" class="icon" viewBox="0 0 1024 1024" version="1.1" xmlns="http://www.w3.org/2000/svg" p-id="64751" xmlns:xlink="http://www.w3.org/1999/xlink" width="256" height="256">
	<defs>
		<style type="text/css">
		</style>
	</defs>
	<path d="M0 0m202.105263 0l619.789474 0q202.105263 0 202.105263 202.105263l0 619.789474q0 202.105263-202.105263 202.105263l-619.789474 0q-202.105263 0-202.105263-202.105263l0-619.789474q0-202.105263 202.105263-202.105263Z" fill="#1296db" p-id="64752">
	</path>
	<path d="M409.856 269.473684h-125.817263l-3.274105 63.730527h132.352z" fill="#FFFFFF" p-id="64753">
	</path>
	<path d="M414.827789 366.362947h-135.760842l-2.694736 51.536842h141.096421z" fill="#FFFFFF" p-id="64754">
	</path>
	<path d="M764.375579 729.263158v-239.602526l-114.432 49.246315v-49.246315l-114.432 49.246315v-49.327158l-79.400421 34.452211 10.522947 205.231158h-33.199158l-14.268631-278.164211h-144.437895l-14.268632 278.164211H229.052632v33.158737h565.894736v-33.158737z m-200.29979-44.207158h-33.212631v-47.157895h33.158737z m66.802527 0h-33.158737v-47.157895h33.158737z m66.802526 0h-33.158737v-47.157895h33.158737z" fill="#FFFFFF" p-id="64755">
	</path>
</svg>
